<?xml version="1.0" encoding="utf-8"?>
<!-- Generated by Mocodo 4.2.4 -->
<svg width="1167" height="593" viewBox="0 0 1167 593" xmlns="http://www.w3.org/2000/svg">
<rect x="0" y="0" width="1167" height="593" fill="#f7f7f7" stroke="none" stroke-width="0"/>

<!-- Association COMMENTE -->
<g>
	<line x1="222" y1="263" x2="222" y2="77" stroke="#7fbc41" stroke-width="2"/>
	<line x1="76" y1="77" x2="222" y2="77" stroke="#7fbc41" stroke-width="2"/>
	<g>
		<path d="M255 52 a14 14 90 0 1 14 14 V77 h-94 V66 a14 14 90 0 1 14 -14" fill="#b8e186" stroke="#b8e186" stroke-width="0"/>
		<path d="M269 77 v11 a14 14 90 0 1 -14 14 H189 a14 14 90 0 1 -14 -14 V77 H94" fill="#e6f5d0" stroke="#e6f5d0" stroke-width="0"/>
		<rect x="175" y="52" width="94" height="50" fill="none" rx="14" stroke="#7fbc41" stroke-width="2"/>
		<line x1="175" y1="77" x2="269" y2="77" stroke="#7fbc41" stroke-width="1"/>
		<text x="187" y="69.75" fill="#000000" font-family="Verdana" font-size="12">COMMENTE</text>
		<text x="182" y="94.8" fill="#000000" font-family="Verdana" font-size="12">COMMENTER</text>
	</g>
	<text x="227" y="162" fill="#c51b7d" font-family="Verdana" font-size="12">0,N</text>
	<text x="148" y="94" fill="#c51b7d" font-family="Verdana" font-size="12">1,1</text>
</g>

<!-- Association DETENU -->
<g>
	<line x1="469" y1="263" x2="469" y2="77" stroke="#7fbc41" stroke-width="2"/>
	<line x1="349" y1="77" x2="469" y2="77" stroke="#7fbc41" stroke-width="2"/>
	<g>
		<path d="M492 52 a14 14 90 0 1 14 14 V77 h-74 V66 a14 14 90 0 1 14 -14" fill="#b8e186" stroke="#b8e186" stroke-width="0"/>
		<path d="M506 77 v11 a14 14 90 0 1 -14 14 H446 a14 14 90 0 1 -14 -14 V77 H74" fill="#e6f5d0" stroke="#e6f5d0" stroke-width="0"/>
		<rect x="432" y="52" width="74" height="50" fill="none" rx="14" stroke="#7fbc41" stroke-width="2"/>
		<line x1="432" y1="77" x2="506" y2="77" stroke="#7fbc41" stroke-width="1"/>
		<text x="444" y="69.75" fill="#000000" font-family="Verdana" font-size="12">DETENU</text>
		<text x="439" y="94.8" fill="#000000" font-family="Verdana" font-size="12">POSSEDE</text>
	</g>
	<text x="443" y="128" fill="#c51b7d" font-family="Verdana" font-size="12">1,1</text>
	<text x="389" y="94" fill="#c51b7d" font-family="Verdana" font-size="12">0,N</text>
</g>

<!-- Association ENVOYER -->
<g>
	<line x1="469" y1="263" x2="767" y2="77" stroke="#7fbc41" stroke-width="2"/>
	<line x1="609" y1="77" x2="767" y2="77" stroke="#7fbc41" stroke-width="2"/>
	<g>
		<path d="M790 52 a14 14 90 0 1 14 14 V77 h-74 V66 a14 14 90 0 1 14 -14" fill="#b8e186" stroke="#b8e186" stroke-width="0"/>
		<path d="M804 77 v11 a14 14 90 0 1 -14 14 H744 a14 14 90 0 1 -14 -14 V77 H74" fill="#e6f5d0" stroke="#e6f5d0" stroke-width="0"/>
		<rect x="730" y="52" width="74" height="50" fill="none" rx="14" stroke="#7fbc41" stroke-width="2"/>
		<line x1="730" y1="77" x2="804" y2="77" stroke="#7fbc41" stroke-width="1"/>
		<text x="738" y="69.75" fill="#000000" font-family="Verdana" font-size="12">ENVOYER</text>
		<text x="737" y="94.8" fill="#000000" font-family="Verdana" font-size="12">ENVOYE</text>
	</g>
	<text x="528" y="241.48" fill="#c51b7d" font-family="Verdana" font-size="12">0,N</text>
	<text x="663" y="94" fill="#c51b7d" font-family="Verdana" font-size="12">1,1</text>
</g>

<!-- Association COMMANDER1 -->
<g>
	<line x1="469" y1="263" x2="914" y2="77" stroke="#7fbc41" stroke-width="2"/>
	<line x1="1060" y1="77" x2="914" y2="77" stroke="#7fbc41" stroke-width="2"/>
	<g>
		<path d="M948 52 a14 14 90 0 1 14 14 V77 h-96 V66 a14 14 90 0 1 14 -14" fill="#b8e186" stroke="#b8e186" stroke-width="0"/>
		<path d="M962 77 v11 a14 14 90 0 1 -14 14 H880 a14 14 90 0 1 -14 -14 V77 H96" fill="#e6f5d0" stroke="#e6f5d0" stroke-width="0"/>
		<rect x="866" y="52" width="96" height="50" fill="none" rx="14" stroke="#7fbc41" stroke-width="2"/>
		<line x1="866" y1="77" x2="962" y2="77" stroke="#7fbc41" stroke-width="1"/>
		<text x="874" y="69.75" fill="#000000" font-family="Verdana" font-size="12">COMMANDER</text>
		<text x="873" y="94.8" fill="#000000" font-family="Verdana" font-size="12">COMMANDE</text>
	</g>
	<text x="528" y="254.16" fill="#c51b7d" font-family="Verdana" font-size="12">0,N</text>
	<text x="968" y="69" fill="#c51b7d" font-family="Verdana" font-size="12">1,1</text>
</g>

<!-- Association DETIENT -->
<g>
	<line x1="76" y1="449" x2="76" y2="263" stroke="#7fbc41" stroke-width="2"/>
	<line x1="222" y1="263" x2="76" y2="263" stroke="#7fbc41" stroke-width="2"/>
	<g>
		<path d="M99 238 a14 14 90 0 1 14 14 V263 h-74 V252 a14 14 90 0 1 14 -14" fill="#b8e186" stroke="#b8e186" stroke-width="0"/>
		<path d="M113 263 v11 a14 14 90 0 1 -14 14 H53 a14 14 90 0 1 -14 -14 V263 H74" fill="#e6f5d0" stroke="#e6f5d0" stroke-width="0"/>
		<rect x="39" y="238" width="74" height="50" fill="none" rx="14" stroke="#7fbc41" stroke-width="2"/>
		<line x1="39" y1="263" x2="113" y2="263" stroke="#7fbc41" stroke-width="1"/>
		<text x="49" y="255.75" fill="#000000" font-family="Verdana" font-size="12">DETIENT</text>
		<text x="46" y="280.8" fill="#000000" font-family="Verdana" font-size="12">DETENUS</text>
	</g>
	<text x="81" y="399" fill="#c51b7d" font-family="Verdana" font-size="12">0,N</text>
	<text x="135" y="280" fill="#c51b7d" font-family="Verdana" font-size="12">1,1</text>
</g>

<!-- Association PUBLIER -->
<g>
	<line x1="469" y1="263" x2="349" y2="263" stroke="#7fbc41" stroke-width="2"/>
	<line x1="222" y1="263" x2="349" y2="263" stroke="#7fbc41" stroke-width="2"/>
	<g>
		<path d="M369 238 a14 14 90 0 1 14 14 V263 h-68 V252 a14 14 90 0 1 14 -14" fill="#b8e186" stroke="#b8e186" stroke-width="0"/>
		<path d="M383 263 v11 a14 14 90 0 1 -14 14 H329 a14 14 90 0 1 -14 -14 V263 H68" fill="#e6f5d0" stroke="#e6f5d0" stroke-width="0"/>
		<rect x="315" y="238" width="68" height="50" fill="none" rx="14" stroke="#7fbc41" stroke-width="2"/>
		<line x1="315" y1="263" x2="383" y2="263" stroke="#7fbc41" stroke-width="1"/>
		<text x="323" y="255.75" fill="#000000" font-family="Verdana" font-size="12">PUBLIER</text>
	</g>
	<text x="388" y="280" fill="#c51b7d" font-family="Verdana" font-size="12">0,N</text>
	<text x="288" y="280" fill="#c51b7d" font-family="Verdana" font-size="12">1,1</text>
</g>

<!-- Association COMPTABILISE -->
<g>
	<line x1="469" y1="263" x2="609" y2="263" stroke="#7fbc41" stroke-width="2"/>
	<line x1="767" y1="263" x2="609" y2="263" stroke="#7fbc41" stroke-width="2"/>
	<g>
		<path d="M649 238 a14 14 90 0 1 14 14 V263 h-108 V252 a14 14 90 0 1 14 -14" fill="#b8e186" stroke="#b8e186" stroke-width="0"/>
		<path d="M663 263 v11 a14 14 90 0 1 -14 14 H569 a14 14 90 0 1 -14 -14 V263 H108" fill="#e6f5d0" stroke="#e6f5d0" stroke-width="0"/>
		<rect x="555" y="238" width="108" height="50" fill="none" rx="14" stroke="#7fbc41" stroke-width="2"/>
		<line x1="555" y1="263" x2="663" y2="263" stroke="#7fbc41" stroke-width="1"/>
		<text x="563" y="255.75" fill="#000000" font-family="Verdana" font-size="12">COMPTABILISE</text>
	</g>
	<text x="528" y="280" fill="#c51b7d" font-family="Verdana" font-size="12">0,N</text>
	<text x="669" y="280" fill="#c51b7d" font-family="Verdana" font-size="12">1,1</text>
</g>

<!-- Association REFERENCE1 -->
<g>
	<line x1="767" y1="263" x2="914" y2="263" stroke="#7fbc41" stroke-width="2"/>
	<line x1="1060" y1="77" x2="914" y2="263" stroke="#7fbc41" stroke-width="2"/>
	<g>
		<path d="M943 238 a14 14 90 0 1 14 14 V263 h-86 V252 a14 14 90 0 1 14 -14" fill="#b8e186" stroke="#b8e186" stroke-width="0"/>
		<path d="M957 263 v11 a14 14 90 0 1 -14 14 H885 a14 14 90 0 1 -14 -14 V263 H86" fill="#e6f5d0" stroke="#e6f5d0" stroke-width="0"/>
		<rect x="871" y="238" width="86" height="50" fill="none" rx="14" stroke="#7fbc41" stroke-width="2"/>
		<line x1="871" y1="263" x2="957" y2="263" stroke="#7fbc41" stroke-width="1"/>
		<text x="878" y="255.75" fill="#000000" font-family="Verdana" font-size="12">REFERENCE</text>
	</g>
	<text x="844" y="280" fill="#c51b7d" font-family="Verdana" font-size="12">1,N</text>
	<text x="1019.09" y="145" fill="#c51b7d" font-family="Verdana" font-size="12">1,1</text>
</g>

<!-- Association REFERENCES -->
<g>
	<line x1="1060" y1="77" x2="1060" y2="263" stroke="#7fbc41" stroke-width="2"/>
	<line x1="914" y1="449" x2="1060" y2="263" stroke="#7fbc41" stroke-width="2"/>
	<g>
		<path d="M1094 238 a14 14 90 0 1 14 14 V263 h-96 V252 a14 14 90 0 1 14 -14" fill="#b8e186" stroke="#b8e186" stroke-width="0"/>
		<path d="M1108 263 v11 a14 14 90 0 1 -14 14 H1026 a14 14 90 0 1 -14 -14 V263 H96" fill="#e6f5d0" stroke="#e6f5d0" stroke-width="0"/>
		<rect x="1012" y="238" width="96" height="50" fill="none" rx="14" stroke="#7fbc41" stroke-width="2"/>
		<line x1="1012" y1="263" x2="1108" y2="263" stroke="#7fbc41" stroke-width="1"/>
		<text x="1020" y="255.75" fill="#000000" font-family="Verdana" font-size="12">REFERENCES</text>
		<text x="1019" y="280.8" fill="#000000" font-family="Verdana" font-size="12">REFERENCER</text>
	</g>
	<text x="1065" y="145" fill="#c51b7d" font-family="Verdana" font-size="12">1,N</text>
	<text x="932.91" y="390" fill="#c51b7d" font-family="Verdana" font-size="12">0,N</text>
</g>

<!-- Association AVOIR -->
<g>
	<line x1="222" y1="263" x2="222" y2="449" stroke="#7fbc41" stroke-width="2"/>
	<line x1="349" y1="449" x2="222" y2="449" stroke="#7fbc41" stroke-width="2"/>
	<g>
		<path d="M235 424 a14 14 90 0 1 14 14 V449 h-54 V438 a14 14 90 0 1 14 -14" fill="#b8e186" stroke="#b8e186" stroke-width="0"/>
		<path d="M249 449 v11 a14 14 90 0 1 -14 14 H209 a14 14 90 0 1 -14 -14 V449 H54" fill="#e6f5d0" stroke="#e6f5d0" stroke-width="0"/>
		<rect x="195" y="424" width="54" height="50" fill="none" rx="14" stroke="#7fbc41" stroke-width="2"/>
		<line x1="195" y1="449" x2="249" y2="449" stroke="#7fbc41" stroke-width="1"/>
		<text x="202" y="441.75" fill="#000000" font-family="Verdana" font-size="12">AVOIR</text>
	</g>
	<text x="227" y="373" fill="#c51b7d" font-family="Verdana" font-size="12">0,N</text>
	<text x="289" y="466" fill="#c51b7d" font-family="Verdana" font-size="12">0,N</text>
</g>

<!-- Association COMMANDER2 -->
<g>
	<line x1="469" y1="263" x2="469" y2="449" stroke="#7fbc41" stroke-width="2"/>
	<line x1="609" y1="449" x2="469" y2="449" stroke="#7fbc41" stroke-width="2"/>
	<g>
		<path d="M503 424 a14 14 90 0 1 14 14 V449 h-96 V438 a14 14 90 0 1 14 -14" fill="#b8e186" stroke="#b8e186" stroke-width="0"/>
		<path d="M517 449 v11 a14 14 90 0 1 -14 14 H435 a14 14 90 0 1 -14 -14 V449 H96" fill="#e6f5d0" stroke="#e6f5d0" stroke-width="0"/>
		<rect x="421" y="424" width="96" height="50" fill="none" rx="14" stroke="#7fbc41" stroke-width="2"/>
		<line x1="421" y1="449" x2="517" y2="449" stroke="#7fbc41" stroke-width="1"/>
		<text x="429" y="441.75" fill="#000000" font-family="Verdana" font-size="12">COMMANDER</text>
	</g>
	<text x="474" y="407" fill="#c51b7d" font-family="Verdana" font-size="12">0,N</text>
	<text x="535" y="466" fill="#c51b7d" font-family="Verdana" font-size="12">1,1</text>
</g>

<!-- Association REFERENCE2 -->
<g>
	<line x1="767" y1="263" x2="767" y2="449" stroke="#7fbc41" stroke-width="2"/>
	<line x1="609" y1="449" x2="767" y2="449" stroke="#7fbc41" stroke-width="2"/>
	<g>
		<path d="M796 424 a14 14 90 0 1 14 14 V449 h-86 V438 a14 14 90 0 1 14 -14" fill="#b8e186" stroke="#b8e186" stroke-width="0"/>
		<path d="M810 449 v11 a14 14 90 0 1 -14 14 H738 a14 14 90 0 1 -14 -14 V449 H86" fill="#e6f5d0" stroke="#e6f5d0" stroke-width="0"/>
		<rect x="724" y="424" width="86" height="50" fill="none" rx="14" stroke="#7fbc41" stroke-width="2"/>
		<line x1="724" y1="449" x2="810" y2="449" stroke="#7fbc41" stroke-width="1"/>
		<text x="731" y="441.75" fill="#000000" font-family="Verdana" font-size="12">REFERENCE</text>
	</g>
	<text x="772" y="390" fill="#c51b7d" font-family="Verdana" font-size="12">1,N</text>
	<text x="662" y="441" fill="#c51b7d" font-family="Verdana" font-size="12">1,1</text>
</g>

<!-- Association REFERENCE3 -->
<g>
	<line x1="914" y1="449" x2="767" y2="559" stroke="#7fbc41" stroke-width="2"/>
	<line x1="609" y1="449" x2="767" y2="559" stroke="#7fbc41" stroke-width="2"/>
	<g>
		<path d="M796 534 a14 14 90 0 1 14 14 V559 h-86 V548 a14 14 90 0 1 14 -14" fill="#b8e186" stroke="#b8e186" stroke-width="0"/>
		<path d="M810 559 v11 a14 14 90 0 1 -14 14 H738 a14 14 90 0 1 -14 -14 V559 H86" fill="#e6f5d0" stroke="#e6f5d0" stroke-width="0"/>
		<rect x="724" y="534" width="86" height="50" fill="none" rx="14" stroke="#7fbc41" stroke-width="2"/>
		<line x1="724" y1="559" x2="810" y2="559" stroke="#7fbc41" stroke-width="1"/>
		<text x="731" y="551.75" fill="#000000" font-family="Verdana" font-size="12">REFERENCE</text>
	</g>
	<text x="842" y="480.32" fill="#c51b7d" font-family="Verdana" font-size="12">1,N</text>
	<text x="662" y="479.73" fill="#c51b7d" font-family="Verdana" font-size="12">1,N</text>
</g>

<!-- Entity COMMENTAIRES -->
<g>
	<g>
		<rect x="9" y="9" width="134" height="25" fill="#f1b6da" stroke="none" stroke-width="0" opacity="1"/>
		<rect x="9" y="34" width="134" height="111" fill="#fde0ef" stroke="none" stroke-width="0" opacity="1"/>
		<rect x="9" y="9" width="134" height="136" fill="none" stroke="#de77ae" stroke-width="2" opacity="1"/>
		<line x1="9" y1="34" x2="143" y2="34" stroke="#de77ae" stroke-width="1"/>
	</g>
	<text x="26" y="26.75" fill="#000000" font-family="Verdana" font-size="12">COMMENTAIRES</text>
	<text x="14" y="51.8" fill="#000000" font-family="Verdana" font-size="12">comment_code</text>
	<line x1="14" y1="54" x2="107" y2="54" stroke="#000000" stroke-width="1"/>
	<text x="14" y="68.8" fill="#000000" font-family="Verdana" font-size="12">titre</text>
	<text x="14" y="85.8" fill="#000000" font-family="Verdana" font-size="12">contenu</text>
	<text x="14" y="102.8" fill="#000000" font-family="Verdana" font-size="12">date_commentaire</text>
	<text x="14" y="119.8" fill="#000000" font-family="Verdana" font-size="12">auteur</text>
	<text x="14" y="136.8" fill="#000000" font-family="Verdana" font-size="12">statut_commentaire</text>
</g>

<!-- Entity ROLE -->
<g>
	<g>
		<rect x="314" y="43" width="70" height="25" fill="#f1b6da" stroke="none" stroke-width="0" opacity="1"/>
		<rect x="314" y="68" width="70" height="43" fill="#fde0ef" stroke="none" stroke-width="0" opacity="1"/>
		<rect x="314" y="43" width="70" height="68" fill="none" stroke="#de77ae" stroke-width="2" opacity="1"/>
		<line x1="314" y1="68" x2="384" y2="68" stroke="#de77ae" stroke-width="1"/>
	</g>
	<text x="333" y="60.75" fill="#000000" font-family="Verdana" font-size="12">ROLE</text>
	<text x="319" y="85.8" fill="#000000" font-family="Verdana" font-size="12">role_code</text>
	<line x1="319" y1="88" x2="379" y2="88" stroke="#000000" stroke-width="1"/>
	<text x="319" y="102.8" fill="#000000" font-family="Verdana" font-size="12">nom</text>
</g>

<!-- Entity MESSAGE -->
<g>
	<g>
		<rect x="560" y="18" width="98" height="25" fill="#f1b6da" stroke="none" stroke-width="0" opacity="1"/>
		<rect x="560" y="43" width="98" height="93" fill="#fde0ef" stroke="none" stroke-width="0" opacity="1"/>
		<rect x="560" y="18" width="98" height="118" fill="none" stroke="#de77ae" stroke-width="2" opacity="1"/>
		<line x1="560" y1="43" x2="658" y2="43" stroke="#de77ae" stroke-width="1"/>
	</g>
	<text x="579" y="35.75" fill="#000000" font-family="Verdana" font-size="12">MESSAGE</text>
	<text x="565" y="60.8" fill="#000000" font-family="Verdana" font-size="12">contact_code</text>
	<line x1="565" y1="63" x2="646" y2="63" stroke="#000000" stroke-width="1"/>
	<text x="565" y="77.8" fill="#000000" font-family="Verdana" font-size="12">pseudo</text>
	<text x="565" y="94.8" fill="#000000" font-family="Verdana" font-size="12">adresse_email</text>
	<text x="565" y="111.8" fill="#000000" font-family="Verdana" font-size="12">sujet</text>
	<text x="565" y="128.8" fill="#000000" font-family="Verdana" font-size="12">message</text>
</g>

<!-- Entity COMMANDE -->
<g>
	<g>
		<rect x="994" y="26" width="132" height="25" fill="#f1b6da" stroke="none" stroke-width="0" opacity="1"/>
		<rect x="994" y="51" width="132" height="77" fill="#fde0ef" stroke="none" stroke-width="0" opacity="1"/>
		<rect x="994" y="26" width="132" height="102" fill="none" stroke="#de77ae" stroke-width="2" opacity="1"/>
		<line x1="994" y1="51" x2="1126" y2="51" stroke="#de77ae" stroke-width="1"/>
	</g>
	<text x="1024" y="43.75" fill="#000000" font-family="Verdana" font-size="12">COMMANDE</text>
	<text x="999" y="68.8" fill="#000000" font-family="Verdana" font-size="12">commande_code</text>
	<line x1="999" y1="71" x2="1102" y2="71" stroke="#000000" stroke-width="1"/>
	<text x="999" y="85.8" fill="#000000" font-family="Verdana" font-size="12">numero_commande</text>
	<text x="999" y="102.8" fill="#000000" font-family="Verdana" font-size="12">date_commande</text>
	<text x="999" y="119.8" fill="#000000" font-family="Verdana" font-size="12">statu_commande</text>
</g>

<!-- Entity ARTICLES -->
<g>
	<g>
		<rect x="161" y="170" width="122" height="25" fill="#f1b6da" stroke="none" stroke-width="0" opacity="1"/>
		<rect x="161" y="195" width="122" height="161" fill="#fde0ef" stroke="none" stroke-width="0" opacity="1"/>
		<rect x="161" y="170" width="122" height="186" fill="none" stroke="#de77ae" stroke-width="2" opacity="1"/>
		<line x1="161" y1="195" x2="283" y2="195" stroke="#de77ae" stroke-width="1"/>
	</g>
	<text x="192" y="187.75" fill="#000000" font-family="Verdana" font-size="12">ARTICLES</text>
	<text x="166" y="212.8" fill="#000000" font-family="Verdana" font-size="12">article_code</text>
	<line x1="166" y1="215" x2="240" y2="215" stroke="#000000" stroke-width="1"/>
	<text x="166" y="229.8" fill="#000000" font-family="Verdana" font-size="12">titre</text>
	<text x="166" y="246.8" fill="#000000" font-family="Verdana" font-size="12">contenu</text>
	<text x="166" y="263.8" fill="#000000" font-family="Verdana" font-size="12">date_publication</text>
	<text x="166" y="280.8" fill="#000000" font-family="Verdana" font-size="12">auteur</text>
	<text x="166" y="297.8" fill="#000000" font-family="Verdana" font-size="12">statut_publication</text>
	<text x="166" y="314.8" fill="#000000" font-family="Verdana" font-size="12">vues</text>
	<text x="166" y="331.8" fill="#000000" font-family="Verdana" font-size="12">image_couverture</text>
</g>

<!-- Entity UTILISATEURS -->
<g>
	<g>
		<rect x="415" y="136" width="108" height="25" fill="#f1b6da" stroke="none" stroke-width="0" opacity="1"/>
		<rect x="415" y="161" width="108" height="229" fill="#fde0ef" stroke="none" stroke-width="0" opacity="1"/>
		<rect x="415" y="136" width="108" height="254" fill="none" stroke="#de77ae" stroke-width="2" opacity="1"/>
		<line x1="415" y1="161" x2="523" y2="161" stroke="#de77ae" stroke-width="1"/>
	</g>
	<text x="424" y="153.75" fill="#000000" font-family="Verdana" font-size="12">UTILISATEURS</text>
	<text x="420" y="178.8" fill="#000000" font-family="Verdana" font-size="12">utilisateur_code</text>
	<line x1="420" y1="181" x2="517" y2="181" stroke="#000000" stroke-width="1"/>
	<text x="420" y="195.8" fill="#000000" font-family="Verdana" font-size="12">nom</text>
	<text x="420" y="212.8" fill="#000000" font-family="Verdana" font-size="12">prenom</text>
	<text x="420" y="229.8" fill="#000000" font-family="Verdana" font-size="12">societe</text>
	<text x="420" y="246.8" fill="#000000" font-family="Verdana" font-size="12">pseudo</text>
	<text x="420" y="263.8" fill="#000000" font-family="Verdana" font-size="12">adresse_email</text>
	<text x="420" y="280.8" fill="#000000" font-family="Verdana" font-size="12">mot_de_passe</text>
	<text x="420" y="297.8" fill="#000000" font-family="Verdana" font-size="12">rue</text>
	<text x="420" y="314.8" fill="#000000" font-family="Verdana" font-size="12">ville</text>
	<text x="420" y="331.8" fill="#000000" font-family="Verdana" font-size="12">code_postal</text>
	<text x="420" y="348.8" fill="#000000" font-family="Verdana" font-size="12">date_inscription</text>
	<text x="420" y="365.8" fill="#000000" font-family="Verdana" font-size="12">avatar</text>
	<text x="420" y="382.8" fill="#000000" font-family="Verdana" font-size="12">biographie</text>
</g>

<!-- Entity FACTURE -->
<g>
	<g>
		<rect x="695" y="153" width="144" height="25" fill="#f1b6da" stroke="none" stroke-width="0" opacity="1"/>
		<rect x="695" y="178" width="144" height="195" fill="#fde0ef" stroke="none" stroke-width="0" opacity="1"/>
		<rect x="695" y="153" width="144" height="220" fill="none" stroke="#de77ae" stroke-width="2" opacity="1"/>
		<line x1="695" y1="178" x2="839" y2="178" stroke="#de77ae" stroke-width="1"/>
	</g>
	<text x="739" y="170.75" fill="#000000" font-family="Verdana" font-size="12">FACTURE</text>
	<text x="700" y="195.8" fill="#000000" font-family="Verdana" font-size="12">facture_code</text>
	<line x1="700" y1="198" x2="779" y2="198" stroke="#000000" stroke-width="1"/>
	<text x="700" y="212.8" fill="#000000" font-family="Verdana" font-size="12">numero_facture</text>
	<text x="700" y="229.8" fill="#000000" font-family="Verdana" font-size="12">nom_client</text>
	<text x="700" y="246.8" fill="#000000" font-family="Verdana" font-size="12">date_facture</text>
	<text x="700" y="263.8" fill="#000000" font-family="Verdana" font-size="12">date_echeance</text>
	<text x="700" y="280.8" fill="#000000" font-family="Verdana" font-size="12">montant_total</text>
	<text x="700" y="297.8" fill="#000000" font-family="Verdana" font-size="12">detail_projet</text>
	<text x="700" y="314.8" fill="#000000" font-family="Verdana" font-size="12">mode_paiement</text>
	<text x="700" y="331.8" fill="#000000" font-family="Verdana" font-size="12">statut_facture</text>
	<text x="700" y="348.8" fill="#000000" font-family="Verdana" font-size="12">information_paiement</text>
	<text x="700" y="365.8" fill="#000000" font-family="Verdana" font-size="12">r</text>
</g>

<!-- Entity CATEGORIES -->
<g>
	<g>
		<rect x="24" y="407" width="104" height="25" fill="#f1b6da" stroke="none" stroke-width="0" opacity="1"/>
		<rect x="24" y="432" width="104" height="59" fill="#fde0ef" stroke="none" stroke-width="0" opacity="1"/>
		<rect x="24" y="407" width="104" height="84" fill="none" stroke="#de77ae" stroke-width="2" opacity="1"/>
		<line x1="24" y1="432" x2="128" y2="432" stroke="#de77ae" stroke-width="1"/>
	</g>
	<text x="36" y="424.75" fill="#000000" font-family="Verdana" font-size="12">CATEGORIES</text>
	<text x="29" y="449.8" fill="#000000" font-family="Verdana" font-size="12">categorie_code</text>
	<line x1="29" y1="452" x2="122" y2="452" stroke="#000000" stroke-width="1"/>
	<text x="29" y="466.8" fill="#000000" font-family="Verdana" font-size="12">nom</text>
	<text x="29" y="483.8" fill="#000000" font-family="Verdana" font-size="12">description</text>
</g>

<!-- Entity TAGS -->
<g>
	<g>
		<rect x="316" y="415" width="66" height="25" fill="#f1b6da" stroke="none" stroke-width="0" opacity="1"/>
		<rect x="316" y="440" width="66" height="43" fill="#fde0ef" stroke="none" stroke-width="0" opacity="1"/>
		<rect x="316" y="415" width="66" height="68" fill="none" stroke="#de77ae" stroke-width="2" opacity="1"/>
		<line x1="316" y1="440" x2="382" y2="440" stroke="#de77ae" stroke-width="1"/>
	</g>
	<text x="332" y="432.75" fill="#000000" font-family="Verdana" font-size="12">TAGS</text>
	<text x="321" y="457.8" fill="#000000" font-family="Verdana" font-size="12">tag_code</text>
	<line x1="321" y1="460" x2="377" y2="460" stroke="#000000" stroke-width="1"/>
	<text x="321" y="474.8" fill="#000000" font-family="Verdana" font-size="12">nom</text>
</g>

<!-- Entity DEVIS -->
<g>
	<g>
		<rect x="561" y="364" width="96" height="25" fill="#f1b6da" stroke="none" stroke-width="0" opacity="1"/>
		<rect x="561" y="389" width="96" height="145" fill="#fde0ef" stroke="none" stroke-width="0" opacity="1"/>
		<rect x="561" y="364" width="96" height="170" fill="none" stroke="#de77ae" stroke-width="2" opacity="1"/>
		<line x1="561" y1="389" x2="657" y2="389" stroke="#de77ae" stroke-width="1"/>
	</g>
	<text x="590" y="381.75" fill="#000000" font-family="Verdana" font-size="12">DEVIS</text>
	<text x="566" y="406.8" fill="#000000" font-family="Verdana" font-size="12">devis_code</text>
	<line x1="566" y1="409" x2="634" y2="409" stroke="#000000" stroke-width="1"/>
	<text x="566" y="423.8" fill="#000000" font-family="Verdana" font-size="12">numero_devis</text>
	<text x="566" y="440.8" fill="#000000" font-family="Verdana" font-size="12">nom_client</text>
	<text x="566" y="457.8" fill="#000000" font-family="Verdana" font-size="12">date_devis</text>
	<text x="566" y="474.8" fill="#000000" font-family="Verdana" font-size="12">validite_devis</text>
	<text x="566" y="491.8" fill="#000000" font-family="Verdana" font-size="12">detail_projet</text>
	<text x="566" y="508.8" fill="#000000" font-family="Verdana" font-size="12">statut_devis</text>
</g>

<!-- Entity PRODUIT -->
<g>
	<g>
		<rect x="869" y="398" width="90" height="25" fill="#f1b6da" stroke="none" stroke-width="0" opacity="1"/>
		<rect x="869" y="423" width="90" height="77" fill="#fde0ef" stroke="none" stroke-width="0" opacity="1"/>
		<rect x="869" y="398" width="90" height="102" fill="none" stroke="#de77ae" stroke-width="2" opacity="1"/>
		<line x1="869" y1="423" x2="959" y2="423" stroke="#de77ae" stroke-width="1"/>
	</g>
	<text x="886" y="415.75" fill="#000000" font-family="Verdana" font-size="12">PRODUIT</text>
	<text x="874" y="440.8" fill="#000000" font-family="Verdana" font-size="12">produit_code</text>
	<line x1="874" y1="443" x2="954" y2="443" stroke="#000000" stroke-width="1"/>
	<text x="874" y="457.8" fill="#000000" font-family="Verdana" font-size="12">nom</text>
	<text x="874" y="474.8" fill="#000000" font-family="Verdana" font-size="12">tarif</text>
	<text x="874" y="491.8" fill="#000000" font-family="Verdana" font-size="12">avatar</text>
</g>
</svg>